# Blender v2.92.0 OBJ File: ''
# www.blender.org
o cadeira_Cube.002
v 3.514988 -0.680829 10.379984
v 0.980336 -0.857658 10.379984
v 3.514988 -0.857658 10.379984
v 0.980336 -0.680829 8.546391
v 3.514988 -0.680829 8.546391
v 0.980336 -0.857658 8.546391
v 0.980336 -0.680829 10.379984
v 3.514988 -0.857658 8.546391
v 3.515738 1.814413 8.545226
v 0.981087 1.814413 8.722055
v 3.515738 1.814413 8.722055
v 0.981087 -0.720248 8.545224
v 3.515738 -0.720248 8.545224
v 0.981087 -0.720248 8.722054
v 0.981087 1.814413 8.545226
v 3.515738 -0.720248 8.722054
vt 0.625000 0.750000
vt 0.875000 0.500000
vt 0.625000 0.500000
vt 0.375000 1.000000
vt 0.375000 0.750000
vt 0.375000 0.250000
vt 0.625000 0.000000
vt 0.375000 0.000000
vt 0.125000 0.750000
vt 0.375000 0.500000
vt 0.125000 0.500000
vt 0.625000 0.250000
vt 0.875000 0.750000
vt 0.625000 1.000000
vt 0.625000 0.750000
vt 0.875000 0.500000
vt 0.625000 0.500000
vt 0.375000 1.000000
vt 0.375000 0.750000
vt 0.375000 0.250000
vt 0.625000 0.000000
vt 0.375000 0.000000
vt 0.125000 0.750000
vt 0.375000 0.500000
vt 0.125000 0.500000
vt 0.625000 0.250000
vt 0.875000 0.750000
vt 0.625000 1.000000
vn 0.0000 0.0000 1.0000
vn 0.0000 1.0000 0.0000
vn -1.0000 0.0000 0.0000
vn 0.0000 0.0000 -1.0000
vn 1.0000 0.0000 0.0000
vn 0.0000 -1.0000 -0.0000
s 1
f 1/1/1 2/2/1 3/3/1
f 4/4/2 1/1/2 5/5/2
f 6/6/3 7/7/3 4/8/3
f 4/9/4 8/10/4 6/11/4
f 5/5/5 3/3/5 8/10/5
f 8/10/6 2/12/6 6/6/6
f 1/1/1 7/13/1 2/2/1
f 4/4/2 7/14/2 1/1/2
f 6/6/3 2/12/3 7/7/3
f 4/9/4 5/5/4 8/10/4
f 5/5/5 1/1/5 3/3/5
f 8/10/6 3/3/6 2/12/6
f 9/15/2 10/16/2 11/17/2
f 12/18/4 9/15/4 13/19/4
f 14/20/3 15/21/3 12/22/3
f 12/23/6 16/24/6 14/25/6
f 13/19/5 11/17/5 16/24/5
f 16/24/1 10/26/1 14/20/1
f 9/15/2 15/27/2 10/16/2
f 12/18/4 15/28/4 9/15/4
f 14/20/3 10/26/3 15/21/3
f 12/23/6 13/19/6 16/24/6
f 13/19/5 9/15/5 11/17/5
f 16/24/1 11/17/1 10/26/1
