# Blender v2.92.0 OBJ File: ''
# www.blender.org
o colchao_Cube_Cube.005
v -8.882428 -0.391928 4.835299
v -8.886641 -0.677986 12.828992
v -8.882428 -0.677986 4.835299
v -12.516236 -0.391928 4.811989
v -8.903812 -0.677986 4.813893
v -12.516236 -0.677986 4.811989
v -12.520460 -0.369506 12.827077
v -8.903823 -0.369507 4.835288
v -12.516248 -0.369506 4.833384
v -8.908047 -0.391928 12.850378
v -12.520472 -0.677986 12.848475
v -8.908047 -0.677986 12.850378
v -12.541857 -0.391928 12.827065
v -12.537644 -0.677986 4.833373
v -12.541857 -0.677986 12.827065
v -8.908035 -0.700406 12.828980
v -8.886641 -0.391928 12.828992
v -8.908035 -0.369507 12.828980
v -12.520460 -0.700405 12.827077
v -12.520472 -0.391928 12.848475
v -8.903823 -0.700406 4.835288
v -8.903812 -0.391928 4.813893
v -12.516248 -0.700405 4.833384
v -12.537644 -0.391928 4.833373
vt 0.008376 -0.001145
vt 0.003908 0.999334
vt 0.006847 1.004209
vt 0.999032 0.993116
vt 0.006847 1.002080
vt 0.009787 0.999731
vt 0.994859 0.003195
vt 0.006874 0.999876
vt 0.996060 0.990912
vt 0.991683 0.001463
vt 0.014196 0.006017
vt 0.005377 -0.005151
vt 0.994623 0.003737
vt 0.009787 0.997602
vt 0.014196 0.008146
vt 0.005141 0.999876
vt 0.005141 1.001338
vt 0.004475 0.999876
vt 0.999032 0.999334
vt 0.996863 1.001539
vt 0.999032 1.000000
vt 0.003671 -0.001214
vt 0.003005 -0.001214
vt 0.003671 -0.002677
vt 0.993924 0.005942
vt 0.993924 0.005942
vt 0.994623 0.003071
vt 0.997536 1.002080
vt 0.998202 1.002080
vt 0.997536 1.003543
vt 0.006208 1.002005
vt 0.006208 1.002005
vt 0.008376 -0.001811
vt 0.999006 0.000991
vt 0.999006 -0.000472
vt 0.999672 0.000991
vt 0.995394 0.990912
vt 0.999032 0.991653
vt 0.999032 0.991653
vt 0.991683 0.000000
vt 0.005377 -0.006614
vt 0.993924 0.003813
vt 0.990984 0.003668
vt 0.994623 0.001608
vt 0.995394 0.988783
vt 0.999032 0.990987
vt 0.008376 -0.003274
vt 0.996329 0.999876
vn 1.0000 0.0000 0.0005
vn 0.0005 0.0000 -1.0000
vn 0.0000 1.0000 -0.0000
vn -0.0005 0.0000 1.0000
vn -1.0000 0.0000 -0.0005
vn 0.5859 -0.5594 0.5864
vn 0.5859 0.5593 0.5864
vn -0.5865 -0.5594 0.5858
vn -0.5865 0.5593 0.5858
vn 0.5864 -0.5594 -0.5858
vn 0.5864 0.5593 -0.5859
vn -0.5858 -0.5594 -0.5864
vn -0.5858 0.5594 -0.5865
vn -0.0004 -0.6904 0.7234
vn 0.7068 0.0000 0.7075
vn 0.7068 0.0000 0.7074
vn -0.0004 0.6904 0.7234
vn -0.7075 0.0000 0.7067
vn -0.7234 -0.6904 -0.0004
vn -0.7235 0.6904 -0.0004
vn -0.7234 0.6904 -0.0004
vn -0.7067 0.0000 -0.7075
vn 0.0004 -0.6904 -0.7234
vn 0.0004 0.6904 -0.7235
vn 0.7075 0.0000 -0.7067
vn 0.7235 -0.6903 0.0004
vn 0.7234 -0.6904 0.0004
vn 0.7235 0.6903 0.0004
vn 0.7234 0.6904 0.0004
vn -0.0000 -1.0000 0.0000
vn 0.7075 0.0000 -0.7068
s 1
f 1/1/1 2/2/1 3/3/1
f 4/4/2 5/5/2 6/6/2
f 7/7/3 8/8/3 9/9/3
f 10/10/4 11/11/4 12/12/4
f 13/13/5 14/14/5 15/15/5
f 16/16/6 2/17/6 12/18/6
f 17/19/7 18/20/7 10/21/7
f 19/22/8 11/23/8 15/24/8
f 7/25/9 13/26/9 20/27/9
f 21/28/10 5/29/10 3/30/10
f 8/31/11 1/32/11 22/33/11
f 23/34/12 14/35/12 6/36/12
f 9/37/13 4/38/13 24/39/13
f 16/16/14 11/23/14 19/22/14
f 17/40/15 12/12/16 2/41/16
f 7/42/17 10/10/17 18/43/17
f 15/15/18 20/44/18 13/13/18
f 19/22/19 14/35/19 23/34/19
f 9/45/20 13/13/21 7/25/21
f 6/6/22 24/46/22 4/4/22
f 23/34/23 5/5/23 21/28/23
f 8/8/24 4/4/24 9/9/24
f 3/3/25 22/47/25 1/1/25
f 21/28/26 2/17/27 16/16/27
f 18/20/28 1/1/29 8/31/29
f 23/34/30 16/16/30 19/22/30
f 1/1/1 17/19/1 2/2/1
f 4/4/2 22/47/2 5/5/2
f 7/7/3 18/48/3 8/8/3
f 10/10/4 20/44/4 11/11/4
f 13/13/5 24/46/5 14/14/5
f 16/16/14 12/18/14 11/23/14
f 17/40/15 10/10/15 12/12/16
f 7/42/17 20/44/17 10/10/17
f 15/15/18 11/11/18 20/44/18
f 19/22/19 15/24/19 14/35/19
f 9/45/20 24/46/20 13/13/21
f 6/6/22 14/14/22 24/46/22
f 23/34/23 6/6/23 5/5/23
f 8/8/24 22/47/24 4/4/24
f 3/3/25 5/5/31 22/47/25
f 21/28/26 3/30/26 2/17/27
f 18/20/28 17/19/28 1/1/29
f 23/34/30 21/28/30 16/16/30
