# Blender v2.92.0 OBJ File: ''
# www.blender.org
o janela_esquerda_Cube.001_Cube.005
v -7.880344 0.677170 -11.119740
v -7.880344 3.246082 -11.119740
v -7.880344 3.246082 -11.459275
v -7.880344 0.677170 -11.459276
v -4.108036 3.246082 -11.459275
v -4.108036 0.677170 -11.459276
v -4.108036 3.246082 -11.119740
v -4.108036 0.677170 -11.119740
vt 0.995777 0.000000
vt 0.004223 0.069751
vt 0.007823 -0.001821
vt 0.997577 0.002385
vt 0.006023 0.993408
vt 0.006023 0.006027
vt 0.004039 0.004771
vt 0.083418 0.995794
vt 0.083418 0.004771
vt 0.995777 0.010798
vt -0.001176 0.996359
vt 0.006023 0.005336
vt 0.994161 0.006592
vt 0.002608 0.076343
vt 0.004408 0.004771
vt 0.997392 0.929684
vt 0.005839 0.995794
vt 0.002239 0.927863
vt 0.997577 0.084317
vt 0.999376 1.000691
vt 0.002239 0.995794
vt 0.997577 0.996359
vt 0.997761 0.072701
vt 0.995592 0.997615
vn -1.0000 -0.0000 0.0000
vn 0.0000 0.0000 -1.0000
vn 1.0000 0.0000 0.0000
vn 0.0000 -0.0000 1.0000
vn 0.0000 -1.0000 0.0000
vn 0.0000 1.0000 0.0000
s 1
f 2/1/1 4/2/1 1/3/1
f 3/4/2 6/5/2 4/6/2
f 5/7/3 8/8/3 6/9/3
f 7/10/4 1/11/4 8/12/4
f 6/13/5 1/14/5 4/15/5
f 3/16/6 7/17/6 5/18/6
f 2/1/1 3/19/1 4/2/1
f 3/4/2 5/20/2 6/5/2
f 5/7/3 7/21/3 8/8/3
f 7/10/4 2/22/4 1/11/4
f 6/13/5 8/23/5 1/14/5
f 3/16/6 2/24/6 7/17/6
