# Blender v2.92.0 OBJ File: ''
# www.blender.org
o moldura_Cube.003_Cube.006
v -9.700408 2.296907 13.080167
v -11.712732 2.260245 13.080167
v -11.712732 2.296925 13.080167
v -9.700408 2.260226 13.080167
v -11.712732 2.260245 13.219237
v -9.700408 2.260226 13.219237
v -11.712732 2.296925 13.219237
v -9.700408 2.296907 13.219237
v -11.712732 3.937048 13.081414
v -11.756068 2.260663 13.081413
v -11.756052 3.937049 13.081414
v -11.712748 2.260663 13.081413
v -11.756068 2.260663 13.217296
v -11.712748 2.260663 13.217296
v -11.756052 3.937049 13.217296
v -11.712732 3.937048 13.217296
v -9.660472 3.937048 13.081414
v -9.703808 2.260663 13.081413
v -9.703793 3.937049 13.081414
v -9.660488 2.260663 13.081413
v -9.703808 2.260663 13.217296
v -9.660488 2.260663 13.217296
v -9.703793 3.937049 13.217296
v -9.660472 3.937048 13.217296
v -9.700408 3.937654 13.080167
v -11.712732 3.900992 13.080167
v -11.712732 3.937672 13.080167
v -9.700408 3.900973 13.080167
v -11.712732 3.900992 13.219238
v -9.700408 3.900973 13.219238
v -11.712732 3.937672 13.219238
v -9.700408 3.937654 13.219238
vt 0.625000 0.000000
vt 0.375000 0.250000
vt 0.375000 0.000000
vt 0.625000 0.250000
vt 0.375000 0.500000
vt 0.625000 0.500000
vt 0.375000 0.750000
vt 0.625000 0.750000
vt 0.375000 1.000000
vt 0.125000 0.750000
vt 0.125000 0.500000
vt 0.875000 0.500000
vt 0.625000 1.000000
vt 0.875000 0.750000
vt 0.625000 0.000000
vt 0.375000 0.250000
vt 0.375000 0.000000
vt 0.625000 0.250000
vt 0.375000 0.500000
vt 0.625000 0.500000
vt 0.375000 0.750000
vt 0.625000 0.750000
vt 0.375000 1.000000
vt 0.125000 0.750000
vt 0.125000 0.500000
vt 0.875000 0.500000
vt 0.625000 1.000000
vt 0.875000 0.750000
vt 0.625000 0.000000
vt 0.375000 0.250000
vt 0.375000 0.000000
vt 0.625000 0.250000
vt 0.375000 0.500000
vt 0.625000 0.500000
vt 0.375000 0.750000
vt 0.625000 0.750000
vt 0.375000 1.000000
vt 0.125000 0.750000
vt 0.125000 0.500000
vt 0.875000 0.500000
vt 0.625000 1.000000
vt 0.875000 0.750000
vt 0.625000 0.000000
vt 0.375000 0.250000
vt 0.375000 0.000000
vt 0.625000 0.250000
vt 0.375000 0.500000
vt 0.625000 0.500000
vt 0.375000 0.750000
vt 0.625000 0.750000
vt 0.375000 1.000000
vt 0.125000 0.750000
vt 0.125000 0.500000
vt 0.875000 0.500000
vt 0.625000 1.000000
vt 0.875000 0.750000
vn 0.0000 0.0000 -1.0000
vn -0.0000 -1.0000 0.0000
vn -0.0000 0.0000 1.0000
vn 0.0000 1.0000 0.0000
vn -1.0000 0.0000 0.0000
vn 1.0000 0.0000 0.0000
s 1
f 1/1/1 2/2/1 3/3/1
f 4/4/2 5/5/2 2/2/2
f 6/6/3 7/7/3 5/5/3
f 8/8/4 3/9/4 7/7/4
f 5/5/5 3/10/5 2/11/5
f 4/12/6 8/8/6 6/6/6
f 1/1/1 4/4/1 2/2/1
f 4/4/2 6/6/2 5/5/2
f 6/6/3 8/8/3 7/7/3
f 8/8/4 1/13/4 3/9/4
f 5/5/5 7/7/5 3/10/5
f 4/12/6 1/14/6 8/8/6
f 9/15/1 10/16/1 11/17/1
f 12/18/2 13/19/2 10/16/2
f 14/20/3 15/21/3 13/19/3
f 16/22/4 11/23/4 15/21/4
f 13/19/5 11/24/5 10/25/5
f 12/26/6 16/22/6 14/20/6
f 9/15/1 12/18/1 10/16/1
f 12/18/2 14/20/2 13/19/2
f 14/20/3 16/22/3 15/21/3
f 16/22/4 9/27/4 11/23/4
f 13/19/5 15/21/5 11/24/5
f 12/26/6 9/28/6 16/22/6
f 17/29/1 18/30/1 19/31/1
f 20/32/2 21/33/2 18/30/2
f 22/34/3 23/35/3 21/33/3
f 24/36/4 19/37/4 23/35/4
f 21/33/5 19/38/5 18/39/5
f 20/40/6 24/36/6 22/34/6
f 17/29/1 20/32/1 18/30/1
f 20/32/2 22/34/2 21/33/2
f 22/34/3 24/36/3 23/35/3
f 24/36/4 17/41/4 19/37/4
f 21/33/5 23/35/5 19/38/5
f 20/40/6 17/42/6 24/36/6
f 25/43/1 26/44/1 27/45/1
f 28/46/2 29/47/2 26/44/2
f 30/48/3 31/49/3 29/47/3
f 32/50/4 27/51/4 31/49/4
f 29/47/5 27/52/5 26/53/5
f 28/54/6 32/50/6 30/48/6
f 25/43/1 28/46/1 26/44/1
f 28/46/2 30/48/2 29/47/2
f 30/48/3 32/50/3 31/49/3
f 32/50/4 25/55/4 27/51/4
f 29/47/5 31/49/5 27/52/5
f 28/54/6 25/56/6 32/50/6
