# Blender v2.92.0 OBJ File: ''
# www.blender.org
o porta_direita_Cube_Cube.002
v 1.716233 -2.025024 -11.079418
v 1.716233 4.304567 -11.079417
v 1.713885 4.304567 -11.416195
v 1.713885 -2.025023 -11.416196
v 4.707243 4.304567 -11.437065
v 4.707243 -2.025023 -11.437066
v 4.709591 4.304567 -11.100287
v 4.709591 -2.025024 -11.100288
vt 0.625000 0.000000
vt 0.375000 0.250000
vt 0.375000 0.000000
vt 0.625000 0.250000
vt 0.375000 0.500000
vt 0.625000 0.500000
vt 0.375000 0.750000
vt 0.625000 0.750000
vt 0.375000 1.000000
vt 0.125000 0.750000
vt 0.125000 0.500000
vt 0.875000 0.500000
vt 0.625000 1.000000
vt 0.875000 0.750000
vn -1.0000 0.0000 0.0070
vn -0.0070 0.0000 -1.0000
vn 1.0000 0.0000 -0.0070
vn 0.0070 -0.0000 1.0000
vn -0.0000 -1.0000 -0.0000
vn 0.0000 1.0000 -0.0000
s 1
f 2/1/1 4/2/1 1/3/1
f 3/4/2 6/5/2 4/2/2
f 5/6/3 8/7/3 6/5/3
f 7/8/4 1/9/4 8/7/4
f 6/5/5 1/10/5 4/11/5
f 3/12/6 7/8/6 5/6/6
f 2/1/1 3/4/1 4/2/1
f 3/4/2 5/6/2 6/5/2
f 5/6/3 7/8/3 8/7/3
f 7/8/4 2/13/4 1/9/4
f 6/5/5 8/7/5 1/10/5
f 3/12/6 2/14/6 7/8/6
