# Blender v2.92.0 OBJ File: ''
# www.blender.org
o travesseiro_Travesseiro_Cube.001
v -9.768000 -0.372571 12.815323
v -11.745046 -0.361762 12.831413
v -11.745037 -0.372571 12.814281
v -9.749259 -0.335228 11.895199
v -9.750563 -0.208635 11.893895
v -9.749259 -0.208635 11.895199
v -11.745037 -0.171289 12.814281
v -9.767523 -0.171289 11.912140
v -11.744561 -0.171289 11.911098
v -9.750869 -0.182100 12.815332
v -9.767999 -0.171289 12.815323
v -9.768008 -0.182100 12.832455
v -11.762169 -0.182100 12.814272
v -9.749752 -0.208635 12.832285
v -9.751058 -0.335228 12.833588
v -9.749752 -0.335228 12.832285
v -9.750393 -0.182100 11.912149
v -11.763302 -0.335227 12.831224
v -11.761999 -0.208634 12.832528
v -11.763302 -0.208634 12.831224
v -11.744561 -0.372571 11.911098
v -9.767514 -0.361762 11.895009
v -9.767523 -0.372571 11.912140
v -11.720570 -0.208634 11.875904
v -9.791479 -0.335228 11.876921
v -11.720570 -0.335227 11.875904
v -11.744552 -0.182100 11.893968
v -11.761504 -0.335227 11.892836
v -11.762808 -0.208634 11.894137
v -11.761504 -0.208634 11.892836
v -9.791992 -0.208635 12.850517
v -11.721083 -0.335227 12.849501
v -9.791992 -0.335228 12.850517
v -9.732329 -0.208635 11.936133
v -9.732780 -0.335228 12.791368
v -9.732329 -0.335228 11.936133
v -11.762169 -0.361762 12.814272
v -11.761693 -0.361762 11.911089
v -11.780233 -0.208634 12.790290
v -11.779782 -0.335227 11.935055
v -11.780233 -0.335227 12.790290
v -11.745046 -0.182100 12.831413
v -11.761693 -0.182100 11.911089
v -9.750393 -0.361762 11.912149
v -11.744552 -0.361762 11.893968
v -9.767514 -0.182100 11.895009
v -9.750869 -0.361762 12.815332
v -9.768008 -0.361762 12.832455
v -9.732780 -0.208635 12.791368
v -9.751058 -0.208635 12.833588
v -11.761999 -0.335227 12.832528
v -11.721083 -0.208634 12.849501
v -9.750563 -0.335228 11.893895
v -9.791479 -0.208635 11.876921
v -11.762808 -0.335227 11.894137
v -11.779782 -0.208634 11.935055
vt 0.134040 0.745701
vt 0.129642 0.504299
vt 0.134040 0.504299
vt 0.421384 0.752618
vt 0.578617 0.752124
vt 0.578617 0.752618
vt 0.865960 0.504299
vt 0.634040 0.745701
vt 0.634040 0.504299
vt 0.611573 0.990960
vt 0.625000 0.990960
vt 0.611573 0.995358
vt 0.625000 0.490960
vt 0.611573 0.259041
vt 0.625000 0.259041
vt 0.578616 0.002070
vt 0.421384 0.002229
vt 0.421384 0.002070
vt 0.611573 0.759040
vt 0.625000 0.759040
vt 0.421384 0.252618
vt 0.578617 0.252124
vt 0.578617 0.252618
vt 0.365960 0.504299
vt 0.383785 0.745701
vt 0.365960 0.745701
vt 0.578617 0.507226
vt 0.421384 0.742774
vt 0.421383 0.507226
vt 0.616215 0.504299
vt 0.421384 0.497876
vt 0.578616 0.497382
vt 0.578616 0.497876
vt 0.578617 0.007226
vt 0.421384 0.242774
vt 0.421383 0.007226
vt 0.578617 0.765197
vt 0.421384 0.984804
vt 0.421384 0.765197
vt 0.134040 0.502207
vt 0.365960 0.502207
vt 0.578617 0.265197
vt 0.421384 0.484804
vt 0.421384 0.265197
vt 0.625000 0.259041
vt 0.611573 0.254642
vt 0.625000 0.504299
vt 0.611573 0.502207
vt 0.611573 0.502207
vt 0.370358 0.745701
vt 0.365960 0.747793
vt 0.370358 0.504299
vt 0.625000 0.759040
vt 0.611573 0.754642
vt 0.134040 0.747793
vt 0.129642 0.745701
vt 0.625000 0.245701
vt 0.611573 0.004299
vt 0.625000 0.004299
vt 0.402594 0.001104
vt 0.421383 0.000000
vt 0.421383 0.004299
vt 0.402594 0.004299
vt 0.578616 0.000000
vt 0.597406 0.001104
vt 0.578616 0.002229
vt 0.597406 0.003195
vt 0.578616 0.004299
vt 0.421384 0.252124
vt 0.402594 0.249125
vt 0.421384 0.245701
vt 0.421383 0.259041
vt 0.402594 0.255616
vt 0.597406 0.255616
vt 0.578617 0.259041
vt 0.578616 0.247771
vt 0.578616 0.245701
vt 0.597406 0.245701
vt 0.421384 0.752124
vt 0.402594 0.749125
vt 0.421384 0.745701
vt 0.421383 0.754688
vt 0.421383 0.759041
vt 0.402594 0.759041
vt 0.597406 0.755616
vt 0.578617 0.759041
vt 0.578616 0.745701
vt 0.597406 0.749125
vt 0.421384 0.497382
vt 0.402594 0.494384
vt 0.421384 0.490960
vt 0.421383 0.504299
vt 0.402594 0.500875
vt 0.597406 0.500875
vt 0.578616 0.504299
vt 0.578616 0.495312
vt 0.578616 0.490959
vt 0.597406 0.490959
vt 0.402594 0.003195
vt 0.597406 0.249125
vt 0.611573 0.245701
vt 0.578617 0.242774
vt 0.402594 0.490960
vt 0.402594 0.259041
vt 0.578617 0.484803
vt 0.611573 0.490960
vt 0.383785 0.504299
vt 0.616215 0.745701
vt 0.578617 0.742774
vt 0.402594 0.990960
vt 0.578617 0.984803
vt 0.865960 0.745701
vt 0.402594 0.755616
vt 0.597406 0.494384
vt 0.402594 0.245701
vn -0.0003 -0.8457 0.5336
vn 0.7075 0.0000 -0.7067
vn 0.7080 0.0000 -0.7062
vn 0.0000 1.0000 0.0000
vn 0.4706 0.7461 0.4711
vn -0.5337 0.8457 -0.0003
vn 0.7063 -0.0000 0.7079
vn 0.7065 0.0000 0.7077
vn 0.5337 0.8456 0.0003
vn 0.5337 0.8457 0.0003
vn -0.7068 0.0000 0.7075
vn -0.7078 0.0000 0.7065
vn -0.7078 0.0000 0.7064
vn 0.0003 -0.8457 -0.5336
vn 0.0005 0.0000 -1.0000
vn 0.0003 0.8457 -0.5337
vn -0.7065 0.0000 -0.7077
vn -0.0005 0.0000 1.0000
vn 1.0000 0.0000 0.0005
vn -0.4710 -0.7461 0.4705
vn -0.5336 -0.8457 -0.0003
vn -1.0000 0.0000 -0.0005
vn -0.4711 0.7461 0.4706
vn -0.4706 0.7461 -0.4711
vn 0.4710 -0.7462 -0.4705
vn -0.4705 -0.7461 -0.4710
vn 0.4711 0.7461 -0.4705
vn 0.4705 -0.7462 0.4710
vn -0.0003 0.8457 0.5337
vn -0.0000 -1.0000 0.0000
vn 0.8886 -0.2729 0.3686
vn 0.3677 -0.2729 0.8890
vn 0.8886 0.2729 0.3686
vn 0.3677 0.2729 0.8890
vn -0.3686 -0.2729 0.8886
vn -0.8890 -0.2728 0.3677
vn -0.8890 0.2728 0.3677
vn -0.3686 0.2729 0.8886
vn 0.3686 -0.2728 -0.8886
vn 0.8890 -0.2729 -0.3677
vn 0.8890 0.2729 -0.3677
vn 0.3686 0.2728 -0.8886
vn -0.8886 -0.2729 -0.3686
vn -0.3678 -0.2728 -0.8890
vn -0.3678 0.2728 -0.8890
vn -0.8886 0.2729 -0.3686
vn 0.6366 -0.4339 0.6376
vn 0.6367 -0.4340 0.6374
vn 0.6366 0.4339 0.6376
vn 0.6367 0.4340 0.6374
vn 0.6364 0.4338 0.6378
vn -0.6372 -0.4340 0.6369
vn -0.6374 -0.4340 0.6367
vn -0.6371 -0.4340 0.6370
vn -0.6372 0.4340 0.6369
vn -0.6374 0.4340 0.6367
vn 0.6371 -0.4339 -0.6370
vn 0.6374 -0.4339 -0.6367
vn 0.6372 -0.4341 -0.6368
vn 0.6374 0.4342 -0.6365
vn 0.6374 0.4339 -0.6367
vn 0.6375 0.4339 -0.6367
vn -0.6364 -0.4340 -0.6376
vn -0.6366 -0.4340 -0.6375
vn -0.6364 0.4340 -0.6376
vn -0.6366 0.4340 -0.6375
vn -0.6363 0.4341 -0.6378
vn -0.0004 -0.5630 0.8265
vn 0.9237 0.0000 0.3832
vn 0.9237 0.0000 0.3831
vn 0.3822 0.0000 0.9241
vn -0.0004 0.5630 0.8265
vn -0.9241 0.0000 0.3822
vn -0.3832 0.0000 0.9237
vn -0.3831 0.0000 0.9237
vn -0.8264 -0.5630 -0.0004
vn -0.8264 0.5630 -0.0004
vn -0.8264 0.5631 -0.0004
vn -0.3822 0.0000 -0.9241
vn -0.9237 0.0000 -0.3832
vn 0.0004 -0.5630 -0.8265
vn 0.0004 0.5630 -0.8265
vn 0.9241 0.0000 -0.3822
vn 0.3832 0.0000 -0.9237
vn 0.8264 -0.5630 0.0004
vn 0.8265 0.5630 0.0004
vn 0.8264 0.5631 0.0004
vn 0.5337 -0.8457 0.0003
vn 0.5336 -0.8457 0.0003
vn 0.7070 0.0000 -0.7072
vn 0.7060 0.0000 0.7082
vn -0.7067 0.0000 0.7075
vn 0.6364 -0.4338 0.6378
vn -0.6371 0.4340 0.6370
vn 0.6375 -0.4339 -0.6367
vn 0.6369 0.4339 -0.6373
vn -0.6363 -0.4341 -0.6378
s 1
f 1/1/1 2/2/1 3/3/1
f 4/4/2 5/5/3 6/6/3
f 7/7/4 8/8/4 9/9/4
f 10/10/5 11/11/5 12/12/5
f 9/13/6 13/14/6 7/15/6
f 14/16/7 15/17/8 16/18/8
f 11/11/9 17/19/10 8/20/10
f 18/21/11 19/22/12 20/23/13
f 21/24/14 22/25/14 23/26/14
f 24/27/15 25/28/15 26/29/15
f 8/8/16 27/30/16 9/9/16
f 28/31/17 29/32/17 30/33/17
f 31/34/18 32/35/18 33/36/18
f 34/37/19 35/38/19 36/39/19
f 3/3/20 2/2/20 37/40/20
f 3/3/21 38/41/21 21/24/21
f 39/42/22 40/43/22 41/44/22
f 7/15/23 13/45/23 42/46/23
f 9/47/24 27/48/24 43/49/24
f 23/26/25 22/50/25 44/51/25
f 21/24/26 38/41/26 45/52/26
f 8/20/27 17/53/27 46/54/27
f 1/1/28 47/55/28 48/56/28
f 7/57/29 12/58/29 11/59/29
f 21/24/30 1/1/30 3/3/30
f 16/18/31 47/60/31 35/61/31
f 15/17/32 33/62/32 48/63/32
f 14/16/33 49/64/33 10/65/33
f 50/66/34 12/67/34 31/68/34
f 51/69/35 2/70/35 32/71/35
f 18/21/36 41/72/36 37/73/36
f 20/23/37 13/74/37 39/75/37
f 19/76/38 52/77/38 42/78/38
f 53/79/39 22/80/39 25/81/39
f 4/82/40 36/83/40 44/84/40
f 6/6/41 17/85/41 34/86/41
f 5/5/42 54/87/42 46/88/42
f 55/89/43 38/90/43 40/91/43
f 28/31/44 26/92/44 45/93/44
f 30/33/45 27/94/45 24/95/45
f 29/96/46 56/97/46 43/98/46
f 16/18/47 48/99/48 47/60/48
f 14/16/49 12/67/50 50/66/51
f 18/21/52 2/70/53 51/69/54
f 20/23/55 42/100/56 13/74/56
f 4/4/57 22/80/58 53/79/59
f 6/6/60 46/88/61 17/85/62
f 55/89/63 45/93/64 38/90/64
f 29/32/65 27/94/66 30/33/67
f 32/35/68 48/63/68 33/36/68
f 49/64/69 16/18/70 35/61/70
f 33/36/71 50/66/71 31/34/71
f 31/34/72 42/101/72 52/102/72
f 41/44/73 20/23/73 39/42/73
f 52/102/74 51/69/75 32/35/75
f 41/44/76 38/103/76 37/104/76
f 56/105/77 13/14/78 43/106/77
f 26/29/79 30/33/79 24/27/79
f 56/105/80 55/89/80 40/43/80
f 25/28/81 45/107/81 26/29/81
f 24/27/82 46/108/82 54/109/82
f 36/39/83 6/6/83 34/37/83
f 54/109/84 53/79/84 25/28/84
f 36/39/85 47/110/85 44/84/85
f 49/111/86 17/19/87 10/10/86
f 23/26/88 47/55/89 1/1/89
f 1/1/1 48/56/1 2/2/1
f 4/4/2 53/79/90 5/5/3
f 7/7/4 11/112/4 8/8/4
f 9/13/6 43/106/6 13/14/6
f 14/16/7 50/66/91 15/17/8
f 11/11/9 10/10/9 17/19/10
f 18/21/11 51/69/92 19/22/12
f 21/24/14 45/107/14 22/25/14
f 24/27/15 54/109/15 25/28/15
f 8/8/16 46/108/16 27/30/16
f 28/31/17 55/89/17 29/32/17
f 31/34/18 52/102/18 32/35/18
f 34/37/19 49/111/19 35/38/19
f 3/3/21 37/40/21 38/41/21
f 39/42/22 56/105/22 40/43/22
f 7/57/29 42/101/29 12/58/29
f 21/24/30 23/26/30 1/1/30
f 16/18/47 15/17/93 48/99/48
f 14/16/49 10/65/50 12/67/50
f 18/21/52 37/73/53 2/70/53
f 20/23/55 19/22/94 42/100/56
f 4/4/57 44/113/95 22/80/58
f 6/6/60 5/5/96 46/88/61
f 55/89/63 28/31/97 45/93/64
f 29/32/65 43/114/66 27/94/66
f 32/35/68 2/115/68 48/63/68
f 49/64/69 14/16/69 16/18/70
f 33/36/71 15/17/71 50/66/71
f 31/34/72 12/58/72 42/101/72
f 41/44/73 18/21/73 20/23/73
f 52/102/74 19/22/74 51/69/75
f 41/44/76 40/43/76 38/103/76
f 56/105/77 39/42/78 13/14/78
f 26/29/79 28/31/79 30/33/79
f 56/105/80 29/32/80 55/89/80
f 25/28/81 22/25/81 45/107/81
f 24/27/82 27/30/82 46/108/82
f 36/39/83 4/4/83 6/6/83
f 54/109/84 5/5/84 53/79/84
f 36/39/85 35/38/85 47/110/85
f 49/111/86 34/37/87 17/19/87
f 23/26/88 44/51/88 47/55/89
